<?xml version="1.0" encoding="utf-8"?>
<!-- Generator: Adobe Illustrator 15.1.0, SVG Export Plug-In . SVG Version: 6.00 Build 0)  -->
<!DOCTYPE svg PUBLIC "-//W3C//DTD SVG 1.1//EN" "http://www.w3.org/Graphics/SVG/1.1/DTD/svg11.dtd">
<svg version="1.1" id="Layer_1" xmlns="http://www.w3.org/2000/svg" xmlns:xlink="http://www.w3.org/1999/xlink" x="0px" y="0px"
	 width="288px" height="57.6px" viewBox="0 0 288 57.6" enable-background="new 0 0 288 57.6" xml:space="preserve">
<g>
	<path d="M5.109,51.913L26.664,4.376C26.871,3.953,27.218,3.6,27.842,3.6h0.693c0.693,0,0.97,0.353,1.178,0.777l21.346,47.536
		c0.416,0.918-0.139,1.836-1.178,1.836h-6.03c-1.04,0-1.525-0.424-2.01-1.413l-3.396-7.628H17.723l-3.396,7.628
		c-0.277,0.706-0.901,1.413-2.01,1.413h-6.03C5.248,53.749,4.693,52.831,5.109,51.913z M35.049,36.868l-6.931-15.539h-0.208
		l-6.792,15.539H35.049z"/>
	<path d="M64.29,5.648c0-0.706,0.555-1.342,1.248-1.342h16.425c13.376,0,24.326,11.089,24.326,24.651
		c0,13.703-10.95,24.792-24.326,24.792H65.538c-0.693,0-1.248-0.636-1.248-1.342V5.648z M81.131,45.132
		c9.01,0,15.594-6.922,15.594-16.175c0-9.183-6.584-16.104-15.594-16.104H73.23v32.279H81.131z"/>
	<path d="M122.361,5.648c0-0.706,0.624-1.342,1.317-1.342h6.445c0.763,0,1.317,0.636,1.317,1.342v18.718h22.594V5.648
		c0-0.706,0.554-1.342,1.317-1.342h6.376c0.693,0,1.317,0.636,1.317,1.342v46.759c0,0.706-0.624,1.342-1.317,1.342h-6.376
		c-0.763,0-1.317-0.636-1.317-1.342V32.912H131.44v19.495c0,0.706-0.554,1.342-1.317,1.342h-6.445c-0.693,0-1.317-0.636-1.317-1.342
		V5.648z"/>
	<path d="M203.996,3.6c13.861,0,24.95,11.372,24.95,25.499s-11.089,25.357-24.95,25.357c-13.86,0-24.88-11.231-24.88-25.357
		S190.136,3.6,203.996,3.6z M203.996,45.273c8.733,0,15.94-7.275,15.94-16.175s-7.207-16.316-15.94-16.316
		c-8.732,0-15.87,7.417-15.87,16.316S195.264,45.273,203.996,45.273z"/>
	<path d="M266.433,3.6c7,0,12.06,2.26,16.772,6.569c0.624,0.565,0.624,1.413,0.069,1.978l-4.228,4.45
		c-0.485,0.565-1.179,0.565-1.732,0c-2.911-2.613-6.792-4.167-10.674-4.167c-8.871,0-15.455,7.558-15.455,16.458
		c0,8.829,6.653,16.316,15.524,16.316c4.158,0,7.693-1.625,10.604-4.026c0.554-0.494,1.316-0.424,1.732,0l4.297,4.521
		c0.555,0.495,0.416,1.413-0.069,1.907c-4.713,4.662-10.673,6.852-16.842,6.852c-13.86,0-25.019-11.231-25.019-25.357
		S252.572,3.6,266.433,3.6z"/>
</g>
</svg>
